<?xml version="1.0" encoding="utf-8"?><svg class="w-4" version="1.1" xmlns="http://www.w3.org/2000/svg" xmlns:xlink="http://www.w3.org/1999/xlink" x="0px" y="0px" viewBox="0 0 122.88 102.68" style="enable-background:new 0 0 122.88 102.68" xml:space="preserve"><g><path fill="currentColor" d="M31.59,7.92c-2.19,0-3.96-1.77-3.96-3.96c0-2.19,1.77-3.96,3.96-3.96h73.45c2.05,0,3.74,1.56,3.94,3.56l1.86,11.09 l0.86-0.82c1.58-1.5,4.08-1.44,5.58,0.14c1.5,1.58,1.44,4.08-0.14,5.58l-4.73,4.5l10.41,61.98c0.36,2.15-1.1,4.19-3.25,4.55 c-0.22,0.04-0.44,0.05-0.65,0.05v0.01h-9.75l5.48,5.22c1.58,1.5,1.64,4,0.14,5.58c-1.5,1.58-4,1.64-5.58,0.14L97.73,90.65H42.46 l-11.49,10.94c-1.58,1.5-4.08,1.44-5.58-0.14c-1.5-1.58-1.44-4.08,0.14-5.58l5.48-5.22H3.96C1.77,90.65,0,88.88,0,86.69 c0-0.38,0.05-0.75,0.16-1.1c1.93-9.12,4.66-17.41,8.42-24.61c3.89-7.45,8.87-13.71,15.18-18.53c5.32-4.06,10.2-6.47,15.04-7.89 l-15.75-15c-1.58-1.5-1.64-4-0.14-5.58c1.5-1.58,4-1.64,5.58-0.14l19.96,19c4.11-0.34,8.38-0.3,13.04-0.26 c0.66,0.01,1.32,0.01,4.7,0.01h25.83l11.92-11.35L101.7,7.92H31.59L31.59,7.92z M89.41,82.73L70.1,64.35L50.78,82.73H89.41 L89.41,82.73z M64.37,58.89L45.73,41.15c-5.73,0.93-11.2,3-17.18,7.57c-5.37,4.1-9.62,9.48-12.98,15.9 c-2.79,5.34-4.97,11.42-6.65,18.11h30.41L64.37,58.89L64.37,58.89z M56.43,40.44L70.1,53.44l13.6-12.94H66.18l-4.76-0.04 C59.71,40.44,58.05,40.43,56.43,40.44L56.43,40.44z M75.82,58.89l25.04,23.84h13.39l-7.09-42.23H95.15L75.82,58.89L75.82,58.89z M103.46,32.58h2.38l-0.33-1.95L103.46,32.58L103.46,32.58z"/></g></svg>
